<svg class="icon" viewBox="0 0 1024 1024" xmlns="http://www.w3.org/2000/svg" width="16" height="16"><defs><style/></defs><path d="M267 901.5h40.9-16.2c-13.8-.8-24.7-12.2-24.7-26.2v26.2zm407-1h40.9-16.2c-13.8-.8-24.7-12.2-24.7-26.2v26.2z" fill="#242424"/><path d="M754.8 900.5h-40.9 16.2c13.8-.8 24.7-12.2 24.7-26.2v26.2zm-406 0h-40.9 16.2c13.8-.8 24.7-12.2 24.7-26.2v26.2zm243.9-163.3h-40.9H568c13.8.8 24.7 12.2 24.7 26.2v-26.2zm243.9-163.5h40.9-16.2c-13.8.8-24.7 12.2-24.7 26.2v-26.2zm-651.4 0h-40.9 16.2c13.8.8 24.7 12.2 24.7 26.2v-26.2zm244.4 163.5h40.9-16.2c-13.8.8-24.7 12.2-24.7 26.2v-26.2z" fill="#242424"/><path d="M953.7 573.3c11.4.8 23.1-3.1 31.9-11.9 16-16 16-41.9 0-57.9l-445.1-445c-8.2-8.2-18.9-12.1-29.6-12-10.7-.2-21.4 3.8-29.6 12l-445.1 445c-1.6 1.6-3.1 3.4-4.4 5.2-5.3 6.9-8.5 15.5-8.5 24.9 0 22.6 18.3 40.9 40.9 40.9h120.9V914c0 37.6 30.5 68.1 68.1 68.1h.5v.1h108.7c34.7 0 63.3-26 67.5-59.5V737.5h162.3l.4 122V914c0 37.6 30.5 68.1 68.1 68.1h.5v.1h108.2c34 0 62.2-25 67.3-57.6v-351" fill="#242424"/></svg>